<?xml version="1.0" standalone="no"?><!DOCTYPE svg PUBLIC "-//W3C//DTD SVG 1.1//EN" "http://www.w3.org/Graphics/SVG/1.1/DTD/svg11.dtd"><svg t="1766392990586" class="icon" viewBox="0 0 1024 1024" version="1.1" xmlns="http://www.w3.org/2000/svg" p-id="9428" xmlns:xlink="http://www.w3.org/1999/xlink" width="200" height="200"><path d="M908.611316 239.292735l2.721684 711.518222c0 16.437893-13.204209 29.642101-29.642101 29.642101H193.818989c-16.437893 0-29.642101-13.204209-29.642101-29.642101V73.000546c0-16.424419 13.204209-29.628628 29.642101-29.628627l522.495931-1.077895L675.1124 0.000135H195.274147A69.48378 69.48378 0 0 0 125.709525 69.578231v884.843673a69.497254 69.497254 0 0 0 69.564622 69.59157H880.235741a69.510728 69.510728 0 0 0 69.59157-69.59157V281.57315l-41.215995-42.293889z" fill="#D6473B" fill-opacity=".4" p-id="9429"></path><path d="M675.125873 206.201371a75.506516 75.506516 0 0 0 75.533464 75.546937h199.343132L675.125873 0.000135v206.201236z" fill="#EF6A63" p-id="9430"></path><path d="M532.34526 481.09144H109.972263A96.48504 96.48504 0 0 1 13.47375 384.592926V320.79504A96.48504 96.48504 0 0 1 109.972263 224.283053H532.34526a96.48504 96.48504 0 0 1 96.498514 96.511987v63.797886a96.48504 96.48504 0 0 1-96.498514 96.498514" fill="#FA4E4E" p-id="9431"></path><path d="M412.335171 274.890204H567.242098v40.663573h-52.062309v124.14651h-50.957467V315.553777h-52.062309l0.188632-40.663573z m-178.930503 0h56.225677l29.278312 50.782309 28.375575-50.795783h55.484624l-51.33473 79.885463 56.19873 85.126726h-57.276624l-32.538943-52.951572-32.538943 52.951572h-56.926309l56.926309-86.029462-51.873678-78.969253z m-166.602083 0h154.866506v40.663573H169.633729v124.14651H118.649315V315.553777H66.802585v-40.663573z" fill="#FFFFFF" p-id="9432"></path><path d="M770.72165 690.01436h-465.919939a30.046312 30.046312 0 0 1-29.992417-30.005891v-5.591578a30.046312 30.046312 0 0 1 29.992417-30.019365h465.919939a30.046312 30.046312 0 0 1 30.005891 30.019365v5.591578a30.046312 30.046312 0 0 1-30.005891 30.005891M579.691781 828.281289H304.815185a30.046312 30.046312 0 0 1-30.005891-30.019365v-5.591578a30.046312 30.046312 0 0 1 30.005891-30.005891h274.876596a30.046312 30.046312 0 0 1 30.00589 30.005891v5.591578a30.046312 30.046312 0 0 1-30.00589 30.019365" fill="#EF6A63" p-id="9433"></path></svg>